%TF.GenerationSoftware,KiCad,Pcbnew,8.0.0*%
%TF.CreationDate,2025-04-21T08:56:31-05:00*%
%TF.ProjectId,drako-cyberstorm,6472616b-6f2d-4637-9962-657273746f72,2*%
%TF.SameCoordinates,Original*%
%TF.FileFunction,Legend,Bot*%
%TF.FilePolarity,Positive*%
%FSLAX46Y46*%
G04 Gerber Fmt 4.6, Leading zero omitted, Abs format (unit mm)*
G04 Created by KiCad (PCBNEW 8.0.0) date 2025-04-21 08:56:31*
%MOMM*%
%LPD*%
G01*
G04 APERTURE LIST*
%ADD10C,0.200000*%
G04 APERTURE END LIST*
D10*
G36*
X147782369Y-101760921D02*
G01*
X147792138Y-101790230D01*
X147821448Y-101800000D01*
X147977763Y-101800000D01*
X148006461Y-101790230D01*
X148016842Y-101760921D01*
X148016842Y-100667018D01*
X148006461Y-100638319D01*
X147977763Y-100627634D01*
X147821448Y-100627634D01*
X147792138Y-100638319D01*
X147782369Y-100667018D01*
X147782369Y-101102686D01*
X147761913Y-101122531D01*
X147468822Y-101122531D01*
X147455694Y-101117951D01*
X147450198Y-101102686D01*
X147450198Y-100667018D01*
X147440734Y-100638319D01*
X147411120Y-100627634D01*
X147254804Y-100627634D01*
X147226411Y-100638319D01*
X147215725Y-100667018D01*
X147215725Y-101760921D01*
X147226411Y-101790230D01*
X147254804Y-101800000D01*
X147411120Y-101800000D01*
X147440734Y-101790230D01*
X147450198Y-101760921D01*
X147450198Y-101332885D01*
X147454778Y-101317925D01*
X147468822Y-101311514D01*
X147761913Y-101311514D01*
X147782369Y-101332885D01*
X147782369Y-101760921D01*
G37*
G36*
X146270811Y-100979344D02*
G01*
X146236311Y-101012622D01*
X146236311Y-101766721D01*
X146272948Y-101800000D01*
X146414609Y-101800000D01*
X146442391Y-101791451D01*
X146451550Y-101767027D01*
X146451550Y-101174433D01*
X146469563Y-101155198D01*
X146735177Y-101155198D01*
X146794495Y-101170314D01*
X146802344Y-101178096D01*
X146823073Y-101236747D01*
X146822189Y-101252285D01*
X146822189Y-101528890D01*
X146810670Y-101589943D01*
X146802344Y-101602773D01*
X146744371Y-101623957D01*
X146735483Y-101624145D01*
X146622215Y-101624145D01*
X146599623Y-101634830D01*
X146589548Y-101659255D01*
X146589548Y-101765195D01*
X146599928Y-101789619D01*
X146624047Y-101800000D01*
X146776393Y-101800000D01*
X146842017Y-101794662D01*
X146904509Y-101776213D01*
X146960577Y-101740698D01*
X146969345Y-101732527D01*
X147008107Y-101678968D01*
X147029383Y-101618193D01*
X147037162Y-101553656D01*
X147037428Y-101538049D01*
X147037428Y-101241294D01*
X147031994Y-101174833D01*
X147013211Y-101111864D01*
X146977053Y-101055822D01*
X146968735Y-101047121D01*
X146914798Y-101008533D01*
X146854119Y-100987352D01*
X146790025Y-100979608D01*
X146774562Y-100979344D01*
X146270811Y-100979344D01*
G37*
G36*
X145290786Y-100979344D02*
G01*
X145256898Y-101015980D01*
X145256898Y-101133522D01*
X145265446Y-101163136D01*
X145292008Y-101168326D01*
X145510300Y-101168326D01*
X145572446Y-101181862D01*
X145614221Y-101228020D01*
X145627686Y-101290150D01*
X145628147Y-101306934D01*
X145628147Y-101611017D01*
X145466031Y-101611017D01*
X145442827Y-101620481D01*
X145432752Y-101643989D01*
X145432752Y-101765195D01*
X145443133Y-101789619D01*
X145467557Y-101800000D01*
X146021378Y-101800000D01*
X146047023Y-101789619D01*
X146058014Y-101765195D01*
X146058014Y-101643989D01*
X146047329Y-101620481D01*
X146021378Y-101611017D01*
X145843386Y-101611017D01*
X145843386Y-101168326D01*
X146021378Y-101168326D01*
X146047023Y-101158862D01*
X146058014Y-101133522D01*
X146058014Y-101014148D01*
X146047634Y-100989724D01*
X146022904Y-100979344D01*
X145665088Y-100979344D01*
X145638832Y-100989724D01*
X145628147Y-101015980D01*
X145628147Y-101074598D01*
X145621430Y-101074598D01*
X145585581Y-101024199D01*
X145554569Y-101003463D01*
X145495819Y-100983324D01*
X145453513Y-100979344D01*
X145290786Y-100979344D01*
G37*
G36*
X144312899Y-100627634D02*
G01*
X144287864Y-100638319D01*
X144277178Y-100662438D01*
X144277178Y-101763668D01*
X144287864Y-101789314D01*
X144312899Y-101800000D01*
X144456392Y-101800000D01*
X144481732Y-101789009D01*
X144492418Y-101763363D01*
X144492418Y-101707187D01*
X144499134Y-101707187D01*
X144535424Y-101758253D01*
X144563248Y-101776186D01*
X144621112Y-101796651D01*
X144657892Y-101800000D01*
X144825198Y-101800000D01*
X144890385Y-101794517D01*
X144951767Y-101775567D01*
X145005858Y-101739088D01*
X145014181Y-101730696D01*
X145050857Y-101675480D01*
X145070988Y-101612511D01*
X145078349Y-101545438D01*
X145078600Y-101529195D01*
X145078600Y-101248316D01*
X145074536Y-101187084D01*
X145060247Y-101127275D01*
X145032305Y-101072094D01*
X145013571Y-101048953D01*
X144961756Y-101009322D01*
X144902317Y-100987569D01*
X144838778Y-100979615D01*
X144823367Y-100979344D01*
X144670104Y-100979344D01*
X144645375Y-100989419D01*
X144635605Y-101016285D01*
X144635605Y-101131690D01*
X144638047Y-101147260D01*
X144644764Y-101158251D01*
X144655755Y-101165579D01*
X144669188Y-101168326D01*
X144770244Y-101168326D01*
X144831543Y-101181929D01*
X144842295Y-101190614D01*
X144862847Y-101248356D01*
X144863361Y-101263581D01*
X144863361Y-101517288D01*
X144851063Y-101578424D01*
X144843211Y-101588729D01*
X144786089Y-101610472D01*
X144770549Y-101611017D01*
X144601716Y-101611017D01*
X144539489Y-101596153D01*
X144501063Y-101546036D01*
X144492418Y-101485232D01*
X144492418Y-100662744D01*
X144481732Y-100638319D01*
X144456392Y-100627634D01*
X144312899Y-100627634D01*
G37*
G36*
X144062855Y-101800000D02*
G01*
X144088501Y-101789619D01*
X144099187Y-101764890D01*
X144099187Y-101014453D01*
X144088501Y-100989113D01*
X144062855Y-100979344D01*
X143920279Y-100979344D01*
X143901350Y-100983923D01*
X143888527Y-100996135D01*
X143883948Y-101014453D01*
X143883948Y-101511793D01*
X143879063Y-101511793D01*
X143798463Y-101014453D01*
X143773428Y-100979344D01*
X143620471Y-100979344D01*
X143596962Y-101014453D01*
X143513004Y-101513625D01*
X143513004Y-101014453D01*
X143502929Y-100989113D01*
X143476367Y-100979344D01*
X143333485Y-100979344D01*
X143308450Y-100989113D01*
X143297765Y-101014759D01*
X143297765Y-101764890D01*
X143308145Y-101789619D01*
X143332569Y-101800000D01*
X143611617Y-101800000D01*
X143633293Y-101791451D01*
X143643368Y-101768553D01*
X143693438Y-101314872D01*
X143700460Y-101314872D01*
X143752362Y-101768553D01*
X143763963Y-101791451D01*
X143787472Y-101800000D01*
X144062855Y-101800000D01*
G37*
G36*
X142353155Y-100979344D02*
G01*
X142318656Y-101012622D01*
X142318656Y-101766721D01*
X142355293Y-101800000D01*
X142496953Y-101800000D01*
X142524736Y-101791451D01*
X142533895Y-101767027D01*
X142533895Y-101174433D01*
X142551908Y-101155198D01*
X142817522Y-101155198D01*
X142876839Y-101170314D01*
X142884689Y-101178096D01*
X142905417Y-101236747D01*
X142904534Y-101252285D01*
X142904534Y-101528890D01*
X142893014Y-101589943D01*
X142884689Y-101602773D01*
X142826716Y-101623957D01*
X142817827Y-101624145D01*
X142704560Y-101624145D01*
X142681967Y-101634830D01*
X142671892Y-101659255D01*
X142671892Y-101765195D01*
X142682273Y-101789619D01*
X142706392Y-101800000D01*
X142858738Y-101800000D01*
X142924362Y-101794662D01*
X142986854Y-101776213D01*
X143042922Y-101740698D01*
X143051690Y-101732527D01*
X143090452Y-101678968D01*
X143111728Y-101618193D01*
X143119507Y-101553656D01*
X143119773Y-101538049D01*
X143119773Y-101241294D01*
X143114339Y-101174833D01*
X143095556Y-101111864D01*
X143059398Y-101055822D01*
X143051079Y-101047121D01*
X142997143Y-101008533D01*
X142936464Y-100987352D01*
X142872369Y-100979608D01*
X142856906Y-100979344D01*
X142353155Y-100979344D01*
G37*
G36*
X141373131Y-100979344D02*
G01*
X141339242Y-101015980D01*
X141339242Y-101133522D01*
X141347791Y-101163136D01*
X141374352Y-101168326D01*
X141592644Y-101168326D01*
X141654790Y-101181862D01*
X141696566Y-101228020D01*
X141710031Y-101290150D01*
X141710491Y-101306934D01*
X141710491Y-101611017D01*
X141548375Y-101611017D01*
X141525172Y-101620481D01*
X141515097Y-101643989D01*
X141515097Y-101765195D01*
X141525478Y-101789619D01*
X141549902Y-101800000D01*
X142103722Y-101800000D01*
X142129368Y-101789619D01*
X142140359Y-101765195D01*
X142140359Y-101643989D01*
X142129673Y-101620481D01*
X142103722Y-101611017D01*
X141925730Y-101611017D01*
X141925730Y-101168326D01*
X142103722Y-101168326D01*
X142129368Y-101158862D01*
X142140359Y-101133522D01*
X142140359Y-101014148D01*
X142129979Y-100989724D01*
X142105249Y-100979344D01*
X141747433Y-100979344D01*
X141721177Y-100989724D01*
X141710491Y-101015980D01*
X141710491Y-101074598D01*
X141703775Y-101074598D01*
X141667925Y-101024199D01*
X141636913Y-101003463D01*
X141578164Y-100983324D01*
X141535858Y-100979344D01*
X141373131Y-100979344D01*
G37*
G36*
X140594302Y-101311514D02*
G01*
X140580258Y-101305713D01*
X140574762Y-101293501D01*
X140574762Y-101263886D01*
X140587642Y-101202349D01*
X140597660Y-101189698D01*
X140657830Y-101169078D01*
X140677955Y-101168326D01*
X140842513Y-101168326D01*
X140904721Y-101179149D01*
X140922503Y-101191224D01*
X140944890Y-101250402D01*
X140945706Y-101270298D01*
X140945706Y-101509045D01*
X140934200Y-101570011D01*
X140922808Y-101587508D01*
X140864498Y-101609892D01*
X140841292Y-101611017D01*
X140395854Y-101611017D01*
X140368988Y-101621397D01*
X140359523Y-101649485D01*
X140359523Y-101764890D01*
X140368377Y-101791146D01*
X140395854Y-101800000D01*
X140869380Y-101800000D01*
X140934543Y-101795382D01*
X140998683Y-101779148D01*
X141053114Y-101751225D01*
X141084009Y-101726116D01*
X141124581Y-101672610D01*
X141150126Y-101612844D01*
X141160645Y-101546816D01*
X141160945Y-101532859D01*
X141160945Y-101281594D01*
X141157322Y-101217194D01*
X141144308Y-101153362D01*
X141118355Y-101094004D01*
X141085230Y-101052311D01*
X141031855Y-101013832D01*
X140973469Y-100991386D01*
X140905277Y-100980484D01*
X140871823Y-100979344D01*
X140648646Y-100979344D01*
X140583673Y-100983885D01*
X140519839Y-100999851D01*
X140460413Y-101031073D01*
X140435239Y-101052006D01*
X140395311Y-101103860D01*
X140372019Y-101161541D01*
X140360706Y-101229654D01*
X140359523Y-101263276D01*
X140359523Y-101431193D01*
X140370819Y-101457449D01*
X140396160Y-101467829D01*
X140760387Y-101467829D01*
X140785422Y-101457754D01*
X140796107Y-101430887D01*
X140796107Y-101348761D01*
X140785422Y-101321894D01*
X140760387Y-101311514D01*
X140594302Y-101311514D01*
G37*
G36*
X138847323Y-100628315D02*
G01*
X138907991Y-100638539D01*
X138966279Y-100664287D01*
X139014966Y-100705181D01*
X139038830Y-100736494D01*
X139065368Y-100791835D01*
X139080797Y-100857222D01*
X139085186Y-100923778D01*
X139085186Y-100943318D01*
X139083934Y-100979236D01*
X139075369Y-101041709D01*
X139058689Y-101101381D01*
X139033895Y-101158251D01*
X139047602Y-101160726D01*
X139104864Y-101188959D01*
X139141362Y-101239157D01*
X139159394Y-101277396D01*
X139176782Y-101337331D01*
X139182578Y-101400357D01*
X139182578Y-101505382D01*
X139181005Y-101548143D01*
X139171946Y-101609896D01*
X139152130Y-101669560D01*
X139118159Y-101723674D01*
X139109897Y-101732916D01*
X139056950Y-101773092D01*
X138997798Y-101793962D01*
X138935587Y-101800000D01*
X138843691Y-101800000D01*
X138780417Y-101792520D01*
X138721875Y-101770080D01*
X138689127Y-101739661D01*
X138663562Y-101682152D01*
X138596395Y-101773133D01*
X138543883Y-101800000D01*
X138384515Y-101800000D01*
X138372302Y-101787482D01*
X138375966Y-101766111D01*
X138555693Y-101500497D01*
X138785989Y-101500497D01*
X138795758Y-101553620D01*
X138822625Y-101590867D01*
X138860788Y-101604605D01*
X138905057Y-101604605D01*
X138926886Y-101604300D01*
X138983215Y-101579570D01*
X138997540Y-101555800D01*
X139006723Y-101495001D01*
X139006723Y-101415928D01*
X139006723Y-101376543D01*
X139000922Y-101338686D01*
X138978635Y-101303576D01*
X138936503Y-101290143D01*
X138785989Y-101500497D01*
X138555693Y-101500497D01*
X138617461Y-101409211D01*
X138403138Y-101409211D01*
X138371692Y-101371964D01*
X138371692Y-101252896D01*
X138403443Y-101213817D01*
X138738056Y-101213817D01*
X138806749Y-101113677D01*
X138834398Y-101068454D01*
X138859517Y-101010634D01*
X138869947Y-100948813D01*
X138869947Y-100923778D01*
X138870023Y-100901949D01*
X138851018Y-100841957D01*
X138847951Y-100838495D01*
X138789347Y-100816617D01*
X138749963Y-100816617D01*
X138694398Y-100842262D01*
X138684805Y-100864113D01*
X138674553Y-100925000D01*
X138674553Y-100937822D01*
X138643717Y-100977512D01*
X138491981Y-100977512D01*
X138459314Y-100937212D01*
X138459314Y-100921641D01*
X138460902Y-100878887D01*
X138470046Y-100817177D01*
X138490051Y-100757607D01*
X138524344Y-100703654D01*
X138532646Y-100694449D01*
X138585901Y-100654434D01*
X138645459Y-100633647D01*
X138708136Y-100627634D01*
X138825373Y-100627634D01*
X138847323Y-100628315D01*
G37*
G36*
X137196884Y-100638930D02*
G01*
X137207875Y-100665491D01*
X137207875Y-100782423D01*
X137197494Y-100807152D01*
X137172459Y-100816617D01*
X136752056Y-100816617D01*
X136725018Y-100818181D01*
X136667487Y-100841652D01*
X136652539Y-100862615D01*
X136641231Y-100923473D01*
X136641231Y-100996135D01*
X136642968Y-101022678D01*
X136669014Y-101078262D01*
X136693265Y-101092877D01*
X136754804Y-101102991D01*
X136954167Y-101102991D01*
X136967295Y-101096885D01*
X136973401Y-101083757D01*
X136973401Y-101014148D01*
X136984087Y-100990029D01*
X137008817Y-100979344D01*
X137172459Y-100979344D01*
X137185893Y-100982091D01*
X137197494Y-100989113D01*
X137205432Y-101000409D01*
X137207875Y-101014148D01*
X137207875Y-101761226D01*
X137196578Y-101788703D01*
X137169712Y-101800000D01*
X136702903Y-101800000D01*
X136652241Y-101797305D01*
X136591638Y-101785332D01*
X136532949Y-101760412D01*
X136484305Y-101723368D01*
X136457951Y-101692324D01*
X136428644Y-101637104D01*
X136411605Y-101571499D01*
X136406758Y-101504466D01*
X136621997Y-101504466D01*
X136623268Y-101527790D01*
X136648558Y-101586287D01*
X136672930Y-101601357D01*
X136734349Y-101611017D01*
X136954167Y-101611017D01*
X136969127Y-101604911D01*
X136973401Y-101589645D01*
X136973401Y-101311819D01*
X136967906Y-101296554D01*
X136954167Y-101291974D01*
X136738012Y-101291974D01*
X136709467Y-101293482D01*
X136649474Y-101316093D01*
X136633831Y-101336571D01*
X136621997Y-101397304D01*
X136621997Y-101504466D01*
X136406758Y-101504466D01*
X136406758Y-101395472D01*
X136407416Y-101373624D01*
X136418649Y-101311842D01*
X136448890Y-101258086D01*
X136451773Y-101254922D01*
X136500105Y-101217480D01*
X136562158Y-101198246D01*
X136502585Y-101168670D01*
X136455911Y-101119066D01*
X136432508Y-101060457D01*
X136425992Y-100997967D01*
X136425992Y-100922557D01*
X136427856Y-100880213D01*
X136438589Y-100818880D01*
X136462068Y-100759323D01*
X136502318Y-100704876D01*
X136533892Y-100678625D01*
X136589745Y-100649434D01*
X136655790Y-100632461D01*
X136723053Y-100627634D01*
X137169712Y-100627634D01*
X137196884Y-100638930D01*
G37*
G36*
X135709139Y-100979344D02*
G01*
X135646629Y-100983961D01*
X135584880Y-101000195D01*
X135526920Y-101031942D01*
X135502144Y-101053227D01*
X135462538Y-101105576D01*
X135439434Y-101163243D01*
X135428212Y-101230909D01*
X135427039Y-101264192D01*
X135427039Y-101515151D01*
X135431752Y-101579131D01*
X135448322Y-101642031D01*
X135480724Y-101700647D01*
X135502449Y-101725505D01*
X135555024Y-101764789D01*
X135611978Y-101787705D01*
X135678060Y-101798836D01*
X135710361Y-101800000D01*
X135948497Y-101800000D01*
X136012115Y-101795439D01*
X136074835Y-101779406D01*
X136133535Y-101748053D01*
X136158546Y-101727032D01*
X136195240Y-101678088D01*
X136204036Y-101659560D01*
X136202205Y-101626587D01*
X136172590Y-101611017D01*
X135743639Y-101611017D01*
X135682546Y-101600627D01*
X135665176Y-101589035D01*
X135643083Y-101530043D01*
X135642278Y-101509961D01*
X135642278Y-101271214D01*
X135652956Y-101209150D01*
X135664870Y-101191530D01*
X135723350Y-101169142D01*
X135743028Y-101168326D01*
X135913998Y-101168326D01*
X135974527Y-101179294D01*
X135991545Y-101191530D01*
X136012460Y-101251110D01*
X136013222Y-101271214D01*
X136013222Y-101426919D01*
X136018412Y-101444626D01*
X136031540Y-101458060D01*
X136047721Y-101462334D01*
X136193656Y-101462334D01*
X136206784Y-101459891D01*
X136218080Y-101451953D01*
X136226018Y-101440352D01*
X136228461Y-101426919D01*
X136228461Y-101265108D01*
X136223843Y-101199506D01*
X136207609Y-101135648D01*
X136175862Y-101077044D01*
X136154577Y-101052616D01*
X136102366Y-101013976D01*
X136045382Y-100991436D01*
X135978932Y-100980488D01*
X135946360Y-100979344D01*
X135709139Y-100979344D01*
G37*
G36*
X134482430Y-100979344D02*
G01*
X134447930Y-101012622D01*
X134447930Y-101766721D01*
X134484567Y-101800000D01*
X134626228Y-101800000D01*
X134654010Y-101791451D01*
X134663169Y-101767027D01*
X134663169Y-101174433D01*
X134681182Y-101155198D01*
X134946796Y-101155198D01*
X135006114Y-101170314D01*
X135013963Y-101178096D01*
X135034692Y-101236747D01*
X135033808Y-101252285D01*
X135033808Y-101528890D01*
X135022289Y-101589943D01*
X135013963Y-101602773D01*
X134955990Y-101623957D01*
X134947102Y-101624145D01*
X134833834Y-101624145D01*
X134811242Y-101634830D01*
X134801167Y-101659255D01*
X134801167Y-101765195D01*
X134811547Y-101789619D01*
X134835666Y-101800000D01*
X134988012Y-101800000D01*
X135053636Y-101794662D01*
X135116128Y-101776213D01*
X135172196Y-101740698D01*
X135180964Y-101732527D01*
X135219726Y-101678968D01*
X135241002Y-101618193D01*
X135248781Y-101553656D01*
X135249047Y-101538049D01*
X135249047Y-101241294D01*
X135243613Y-101174833D01*
X135224830Y-101111864D01*
X135188672Y-101055822D01*
X135180354Y-101047121D01*
X135126417Y-101008533D01*
X135065738Y-100987352D01*
X135001644Y-100979608D01*
X134986181Y-100979344D01*
X134482430Y-100979344D01*
G37*
G36*
X133502405Y-100979344D02*
G01*
X133468517Y-101015980D01*
X133468517Y-101133522D01*
X133477065Y-101163136D01*
X133503627Y-101168326D01*
X133721919Y-101168326D01*
X133784065Y-101181862D01*
X133825840Y-101228020D01*
X133839305Y-101290150D01*
X133839766Y-101306934D01*
X133839766Y-101611017D01*
X133677650Y-101611017D01*
X133654446Y-101620481D01*
X133644371Y-101643989D01*
X133644371Y-101765195D01*
X133654752Y-101789619D01*
X133679176Y-101800000D01*
X134232997Y-101800000D01*
X134258642Y-101789619D01*
X134269633Y-101765195D01*
X134269633Y-101643989D01*
X134258948Y-101620481D01*
X134232997Y-101611017D01*
X134055005Y-101611017D01*
X134055005Y-101168326D01*
X134232997Y-101168326D01*
X134258642Y-101158862D01*
X134269633Y-101133522D01*
X134269633Y-101014148D01*
X134259253Y-100989724D01*
X134234523Y-100979344D01*
X133876707Y-100979344D01*
X133850451Y-100989724D01*
X133839766Y-101015980D01*
X133839766Y-101074598D01*
X133833049Y-101074598D01*
X133797200Y-101024199D01*
X133766188Y-101003463D01*
X133707438Y-100983324D01*
X133665132Y-100979344D01*
X133502405Y-100979344D01*
G37*
G36*
X132524518Y-100627634D02*
G01*
X132499483Y-100638319D01*
X132488797Y-100662438D01*
X132488797Y-101763668D01*
X132499483Y-101789314D01*
X132524518Y-101800000D01*
X132668011Y-101800000D01*
X132693351Y-101789009D01*
X132704036Y-101763363D01*
X132704036Y-101707187D01*
X132710753Y-101707187D01*
X132747043Y-101758253D01*
X132774867Y-101776186D01*
X132832731Y-101796651D01*
X132869511Y-101800000D01*
X133036817Y-101800000D01*
X133102004Y-101794517D01*
X133163386Y-101775567D01*
X133217477Y-101739088D01*
X133225800Y-101730696D01*
X133262476Y-101675480D01*
X133282607Y-101612511D01*
X133289968Y-101545438D01*
X133290219Y-101529195D01*
X133290219Y-101248316D01*
X133286155Y-101187084D01*
X133271866Y-101127275D01*
X133243924Y-101072094D01*
X133225190Y-101048953D01*
X133173375Y-101009322D01*
X133113936Y-100987569D01*
X133050397Y-100979615D01*
X133034986Y-100979344D01*
X132881723Y-100979344D01*
X132856994Y-100989419D01*
X132847224Y-101016285D01*
X132847224Y-101131690D01*
X132849666Y-101147260D01*
X132856383Y-101158251D01*
X132867374Y-101165579D01*
X132880807Y-101168326D01*
X132981863Y-101168326D01*
X133043162Y-101181929D01*
X133053914Y-101190614D01*
X133074466Y-101248356D01*
X133074980Y-101263581D01*
X133074980Y-101517288D01*
X133062682Y-101578424D01*
X133054830Y-101588729D01*
X132997708Y-101610472D01*
X132982168Y-101611017D01*
X132813335Y-101611017D01*
X132751107Y-101596153D01*
X132712682Y-101546036D01*
X132704036Y-101485232D01*
X132704036Y-100662744D01*
X132693351Y-100638319D01*
X132668011Y-100627634D01*
X132524518Y-100627634D01*
G37*
G36*
X130828251Y-100627634D02*
G01*
X130761638Y-100632461D01*
X130696049Y-100649434D01*
X130640362Y-100678625D01*
X130608738Y-100704876D01*
X130570809Y-100753468D01*
X130545293Y-100812348D01*
X130533034Y-100873323D01*
X130530275Y-100924389D01*
X130530275Y-101502939D01*
X130535179Y-101570144D01*
X130552419Y-101635988D01*
X130582073Y-101691495D01*
X130608738Y-101722758D01*
X130657824Y-101760096D01*
X130716812Y-101785215D01*
X130777558Y-101797284D01*
X130828251Y-101800000D01*
X131293229Y-101800000D01*
X131320095Y-101788703D01*
X131331392Y-101761226D01*
X131331392Y-101014453D01*
X131321011Y-100989113D01*
X131295976Y-100979344D01*
X131132334Y-100979344D01*
X131107604Y-100989113D01*
X131096919Y-101015064D01*
X131096919Y-101589645D01*
X131092644Y-101604911D01*
X131078295Y-101611017D01*
X130868246Y-101611017D01*
X130806576Y-101599039D01*
X130788562Y-101585676D01*
X130766237Y-101528260D01*
X130764748Y-101500497D01*
X130764748Y-100928968D01*
X130774289Y-100866071D01*
X130789173Y-100841957D01*
X130846797Y-100817829D01*
X130870078Y-100816617D01*
X131295976Y-100816617D01*
X131321011Y-100807458D01*
X131331392Y-100783644D01*
X131331392Y-100663965D01*
X131320095Y-100638319D01*
X131293229Y-100627634D01*
X130828251Y-100627634D01*
G37*
G36*
X129785334Y-101311514D02*
G01*
X129771290Y-101305713D01*
X129765795Y-101293501D01*
X129765795Y-101263886D01*
X129778675Y-101202349D01*
X129788693Y-101189698D01*
X129848863Y-101169078D01*
X129868988Y-101168326D01*
X130033546Y-101168326D01*
X130095754Y-101179149D01*
X130113536Y-101191224D01*
X130135923Y-101250402D01*
X130136739Y-101270298D01*
X130136739Y-101509045D01*
X130125233Y-101570011D01*
X130113841Y-101587508D01*
X130055531Y-101609892D01*
X130032325Y-101611017D01*
X129586887Y-101611017D01*
X129560020Y-101621397D01*
X129550556Y-101649485D01*
X129550556Y-101764890D01*
X129559410Y-101791146D01*
X129586887Y-101800000D01*
X130060413Y-101800000D01*
X130125576Y-101795382D01*
X130189716Y-101779148D01*
X130244147Y-101751225D01*
X130275041Y-101726116D01*
X130315613Y-101672610D01*
X130341159Y-101612844D01*
X130351677Y-101546816D01*
X130351978Y-101532859D01*
X130351978Y-101281594D01*
X130348355Y-101217194D01*
X130335341Y-101153362D01*
X130309388Y-101094004D01*
X130276263Y-101052311D01*
X130222888Y-101013832D01*
X130164502Y-100991386D01*
X130096310Y-100980484D01*
X130062855Y-100979344D01*
X129839678Y-100979344D01*
X129774706Y-100983885D01*
X129710872Y-100999851D01*
X129651445Y-101031073D01*
X129626271Y-101052006D01*
X129586343Y-101103860D01*
X129563052Y-101161541D01*
X129551739Y-101229654D01*
X129550556Y-101263276D01*
X129550556Y-101431193D01*
X129561852Y-101457449D01*
X129587192Y-101467829D01*
X129951420Y-101467829D01*
X129976454Y-101457754D01*
X129987140Y-101430887D01*
X129987140Y-101348761D01*
X129976454Y-101321894D01*
X129951420Y-101311514D01*
X129785334Y-101311514D01*
G37*
G36*
X128571448Y-101585676D02*
G01*
X128578104Y-101647420D01*
X128603663Y-101707698D01*
X128648393Y-101752907D01*
X128712292Y-101783046D01*
X128780185Y-101796651D01*
X128844084Y-101800000D01*
X129337149Y-101800000D01*
X129363100Y-101790840D01*
X129372564Y-101765195D01*
X129372564Y-101657117D01*
X129365542Y-101631472D01*
X129337149Y-101624145D01*
X128890490Y-101624145D01*
X128829788Y-101613411D01*
X128805921Y-101575296D01*
X128805921Y-101568274D01*
X128846730Y-101521733D01*
X128872782Y-101508435D01*
X128929979Y-101484788D01*
X128987875Y-101465017D01*
X129023907Y-101454396D01*
X129082632Y-101436610D01*
X129142945Y-101415578D01*
X129199152Y-101393640D01*
X129255423Y-101367925D01*
X129308885Y-101334883D01*
X129327990Y-101318230D01*
X129359984Y-101264215D01*
X129372390Y-101203491D01*
X129372564Y-101194888D01*
X129366273Y-101131186D01*
X129342116Y-101069934D01*
X129308145Y-101031550D01*
X129249484Y-100999737D01*
X129184792Y-100984442D01*
X129122691Y-100979547D01*
X129105729Y-100979344D01*
X128605336Y-100979344D01*
X128580607Y-100986671D01*
X128571448Y-101013843D01*
X128571448Y-101120699D01*
X128578164Y-101147871D01*
X128605336Y-101155198D01*
X129055048Y-101155198D01*
X129117330Y-101165197D01*
X129138091Y-101195193D01*
X129138091Y-101202215D01*
X129095978Y-101247034D01*
X129069092Y-101259918D01*
X129009709Y-101283123D01*
X128949438Y-101303022D01*
X128911861Y-101313956D01*
X128851021Y-101332450D01*
X128789819Y-101354768D01*
X128733869Y-101378375D01*
X128678732Y-101406305D01*
X128628176Y-101443103D01*
X128611137Y-101462028D01*
X128582649Y-101516871D01*
X128571603Y-101577215D01*
X128571448Y-101585676D01*
G37*
G36*
X127919014Y-100627634D02*
G01*
X127884820Y-100659691D01*
X127884820Y-100808679D01*
X127893368Y-100834019D01*
X127919014Y-100842568D01*
X128065865Y-100842568D01*
X128091510Y-100834019D01*
X128100059Y-100808679D01*
X128100059Y-100661523D01*
X128091510Y-100637098D01*
X128065865Y-100627634D01*
X127919014Y-100627634D01*
G37*
G36*
X127627144Y-101585066D02*
G01*
X127602719Y-101594530D01*
X127592034Y-101618954D01*
X127592034Y-101765806D01*
X127597224Y-101783818D01*
X127610352Y-101795725D01*
X127626533Y-101800000D01*
X128358040Y-101800000D01*
X128374832Y-101795725D01*
X128387960Y-101783818D01*
X128393150Y-101765806D01*
X128393150Y-101618954D01*
X128382770Y-101594530D01*
X128358346Y-101585066D01*
X128100059Y-101585066D01*
X128100059Y-101194277D01*
X128210579Y-101194277D01*
X128229202Y-101190308D01*
X128241414Y-101178401D01*
X128245689Y-101160389D01*
X128245689Y-101013538D01*
X128236224Y-100989724D01*
X128211189Y-100979344D01*
X127920846Y-100979344D01*
X127895200Y-100990029D01*
X127884820Y-101016896D01*
X127884820Y-101585066D01*
X127627144Y-101585066D01*
G37*
G36*
X126648646Y-100979344D02*
G01*
X126612315Y-101014759D01*
X126612315Y-101882737D01*
X126616780Y-101944103D01*
X126632477Y-102004016D01*
X126663174Y-102059257D01*
X126683756Y-102082405D01*
X126733850Y-102118952D01*
X126795215Y-102141963D01*
X126860079Y-102151100D01*
X126883729Y-102151709D01*
X127377711Y-102151709D01*
X127404883Y-102144382D01*
X127413736Y-102117210D01*
X127413736Y-101999057D01*
X127403661Y-101973412D01*
X127379237Y-101962726D01*
X126921892Y-101962726D01*
X126861552Y-101949331D01*
X126849230Y-101940744D01*
X126827117Y-101882132D01*
X126827554Y-101869609D01*
X126827554Y-101187255D01*
X126846177Y-101168326D01*
X127105685Y-101168326D01*
X127166694Y-101181929D01*
X127177431Y-101190614D01*
X127197983Y-101248871D01*
X127198497Y-101264192D01*
X127198497Y-101518815D01*
X127185640Y-101580137D01*
X127177431Y-101590561D01*
X127117592Y-101610697D01*
X127105380Y-101611017D01*
X127004324Y-101611017D01*
X126980205Y-101622008D01*
X126970741Y-101647042D01*
X126970741Y-101763974D01*
X126980511Y-101789314D01*
X127005240Y-101800000D01*
X127158503Y-101800000D01*
X127224156Y-101794517D01*
X127285944Y-101775567D01*
X127340343Y-101739088D01*
X127348707Y-101730696D01*
X127385730Y-101675480D01*
X127406052Y-101612511D01*
X127413482Y-101545438D01*
X127413736Y-101529195D01*
X127413736Y-101248316D01*
X127409329Y-101187084D01*
X127393832Y-101127275D01*
X127363529Y-101072094D01*
X127343211Y-101048953D01*
X127293260Y-101012245D01*
X127231561Y-100989132D01*
X127165988Y-100979955D01*
X127142016Y-100979344D01*
X126648646Y-100979344D01*
G37*
G36*
X126219084Y-101765195D02*
G01*
X126228243Y-101791451D01*
X126254804Y-101800000D01*
X126398297Y-101800000D01*
X126424553Y-101791451D01*
X126434323Y-101765195D01*
X126434323Y-101015980D01*
X126424553Y-100987892D01*
X126398297Y-100979344D01*
X126254804Y-100979344D01*
X126228243Y-100987892D01*
X126219084Y-101015980D01*
X126219084Y-101072766D01*
X126212062Y-101072766D01*
X126176911Y-101019577D01*
X126121413Y-100988467D01*
X126060871Y-100979435D01*
X126053304Y-100979344D01*
X125887829Y-100979344D01*
X125814388Y-100985910D01*
X125753394Y-101005610D01*
X125696633Y-101046587D01*
X125657796Y-101106475D01*
X125639125Y-101170829D01*
X125633150Y-101231768D01*
X125632901Y-101248316D01*
X125632901Y-101764890D01*
X125670453Y-101800000D01*
X125812114Y-101800000D01*
X125838981Y-101791451D01*
X125848140Y-101765195D01*
X125848140Y-101265413D01*
X125859989Y-101204047D01*
X125869206Y-101190919D01*
X125926924Y-101168878D01*
X125942479Y-101168326D01*
X126109480Y-101168326D01*
X126171881Y-101183081D01*
X126210414Y-101232834D01*
X126219084Y-101293196D01*
X126219084Y-101765195D01*
G37*
G36*
X123944877Y-100979344D02*
G01*
X123883588Y-100983694D01*
X123823578Y-100998989D01*
X123768003Y-101028899D01*
X123744598Y-101048953D01*
X123707407Y-101098201D01*
X123683991Y-101159315D01*
X123674693Y-101224464D01*
X123674073Y-101248316D01*
X123674073Y-101529195D01*
X123678481Y-101591248D01*
X123693977Y-101651752D01*
X123724281Y-101707422D01*
X123744598Y-101730696D01*
X123794389Y-101767243D01*
X123855986Y-101790254D01*
X123921519Y-101799390D01*
X123945488Y-101800000D01*
X124439469Y-101800000D01*
X124464809Y-101789619D01*
X124475495Y-101764890D01*
X124475495Y-100662744D01*
X124464809Y-100638319D01*
X124439774Y-100627634D01*
X124295976Y-100627634D01*
X124270942Y-100638319D01*
X124260256Y-100662438D01*
X124260256Y-101593920D01*
X124255066Y-101605826D01*
X124243159Y-101611017D01*
X123983651Y-101611017D01*
X123922857Y-101599167D01*
X123910378Y-101589951D01*
X123889641Y-101529644D01*
X123889312Y-101517288D01*
X123889312Y-101263581D01*
X123901162Y-101203417D01*
X123910378Y-101190614D01*
X123968097Y-101168871D01*
X123983651Y-101168326D01*
X124084706Y-101168326D01*
X124107604Y-101158251D01*
X124116763Y-101133522D01*
X124116763Y-101015980D01*
X124107299Y-100989419D01*
X124083790Y-100979344D01*
X123944877Y-100979344D01*
G37*
G36*
X122729769Y-100979344D02*
G01*
X122692827Y-101014759D01*
X122918752Y-101805495D01*
X122937414Y-101864228D01*
X122942566Y-101879378D01*
X122965206Y-101938583D01*
X122969433Y-101948682D01*
X122997287Y-102004111D01*
X123009733Y-102023482D01*
X123050073Y-102072008D01*
X123060413Y-102081489D01*
X123116829Y-102118519D01*
X123179890Y-102140120D01*
X123245716Y-102149995D01*
X123291528Y-102151709D01*
X123459445Y-102151709D01*
X123496081Y-102115073D01*
X123496081Y-102001195D01*
X123459445Y-101962726D01*
X123371823Y-101962726D01*
X123306288Y-101961084D01*
X123244227Y-101953785D01*
X123212759Y-101941966D01*
X123189251Y-101918457D01*
X123171543Y-101887316D01*
X123160247Y-101859534D01*
X123150478Y-101825034D01*
X123142845Y-101800000D01*
X123230162Y-101800000D01*
X123263440Y-101775575D01*
X123492723Y-101012622D01*
X123464635Y-100979344D01*
X123301908Y-100979344D01*
X123271378Y-100987281D01*
X123254586Y-101012622D01*
X123095523Y-101609185D01*
X123088501Y-101609185D01*
X122930964Y-101012622D01*
X122915394Y-100986366D01*
X122885474Y-100979344D01*
X122729769Y-100979344D01*
G37*
G36*
X120970610Y-100666713D02*
G01*
X120929699Y-100627634D01*
X120775216Y-100627634D01*
X120736137Y-100664576D01*
X120736137Y-101502939D01*
X120740984Y-101570144D01*
X120758023Y-101635988D01*
X120787330Y-101691495D01*
X120813684Y-101722758D01*
X120862328Y-101760096D01*
X120921017Y-101785215D01*
X120981620Y-101797284D01*
X121032281Y-101800000D01*
X121239277Y-101800000D01*
X121306024Y-101795305D01*
X121371718Y-101778803D01*
X121427461Y-101750419D01*
X121459096Y-101724895D01*
X121500312Y-101671455D01*
X121524354Y-101612244D01*
X121535345Y-101550773D01*
X121537254Y-101508129D01*
X121537254Y-101340518D01*
X121526873Y-101310598D01*
X121498175Y-101301439D01*
X121341859Y-101301439D01*
X121312550Y-101310598D01*
X121302780Y-101340518D01*
X121302780Y-101502329D01*
X121292525Y-101564802D01*
X121278967Y-101585982D01*
X121220316Y-101610136D01*
X121201114Y-101611017D01*
X121072276Y-101611017D01*
X121011039Y-101599184D01*
X120993508Y-101585982D01*
X120971706Y-101526367D01*
X120970610Y-101502329D01*
X120970610Y-100666713D01*
G37*
G36*
X120038518Y-100979344D02*
G01*
X119976007Y-100983961D01*
X119914259Y-101000195D01*
X119856299Y-101031942D01*
X119831523Y-101053227D01*
X119791917Y-101105576D01*
X119768813Y-101163243D01*
X119757591Y-101230909D01*
X119756418Y-101264192D01*
X119756418Y-101515151D01*
X119761131Y-101579131D01*
X119777701Y-101642031D01*
X119810103Y-101700647D01*
X119831828Y-101725505D01*
X119884403Y-101764789D01*
X119941357Y-101787705D01*
X120007439Y-101798836D01*
X120039740Y-101800000D01*
X120277876Y-101800000D01*
X120341494Y-101795439D01*
X120404214Y-101779406D01*
X120462914Y-101748053D01*
X120487925Y-101727032D01*
X120524619Y-101678088D01*
X120533415Y-101659560D01*
X120531584Y-101626587D01*
X120501969Y-101611017D01*
X120073018Y-101611017D01*
X120011925Y-101600627D01*
X119994555Y-101589035D01*
X119972462Y-101530043D01*
X119971657Y-101509961D01*
X119971657Y-101271214D01*
X119982335Y-101209150D01*
X119994249Y-101191530D01*
X120052729Y-101169142D01*
X120072407Y-101168326D01*
X120243377Y-101168326D01*
X120303906Y-101179294D01*
X120320924Y-101191530D01*
X120341839Y-101251110D01*
X120342601Y-101271214D01*
X120342601Y-101426919D01*
X120347791Y-101444626D01*
X120360919Y-101458060D01*
X120377100Y-101462334D01*
X120523035Y-101462334D01*
X120536163Y-101459891D01*
X120547459Y-101451953D01*
X120555397Y-101440352D01*
X120557840Y-101426919D01*
X120557840Y-101265108D01*
X120553222Y-101199506D01*
X120536988Y-101135648D01*
X120505241Y-101077044D01*
X120483956Y-101052616D01*
X120431745Y-101013976D01*
X120374761Y-100991436D01*
X120308311Y-100980488D01*
X120275739Y-100979344D01*
X120038518Y-100979344D01*
G37*
G36*
X119363187Y-101765500D02*
G01*
X119372346Y-101791451D01*
X119398907Y-101800000D01*
X119542400Y-101800000D01*
X119568656Y-101791451D01*
X119578426Y-101765500D01*
X119578426Y-100663354D01*
X119568656Y-100636793D01*
X119542400Y-100627634D01*
X119398907Y-100627634D01*
X119372346Y-100636793D01*
X119363187Y-100663354D01*
X119363187Y-101052616D01*
X119356165Y-101052616D01*
X119321014Y-100999775D01*
X119265516Y-100968868D01*
X119204975Y-100959895D01*
X119197407Y-100959804D01*
X119031933Y-100959804D01*
X118958491Y-100966371D01*
X118897498Y-100986071D01*
X118840736Y-101027047D01*
X118801899Y-101086936D01*
X118783228Y-101151289D01*
X118777253Y-101212228D01*
X118777004Y-101228777D01*
X118777004Y-101764890D01*
X118814556Y-101800000D01*
X118956217Y-101800000D01*
X118983084Y-101791451D01*
X118992243Y-101765500D01*
X118992243Y-101243736D01*
X119004093Y-101183057D01*
X119013309Y-101170464D01*
X119071027Y-101149316D01*
X119086582Y-101148787D01*
X119253583Y-101148787D01*
X119315984Y-101163290D01*
X119354517Y-101212191D01*
X119363187Y-101271519D01*
X119363187Y-101765500D01*
G37*
G36*
X118383773Y-101765195D02*
G01*
X118392932Y-101791451D01*
X118419494Y-101800000D01*
X118562986Y-101800000D01*
X118589242Y-101791451D01*
X118599012Y-101765195D01*
X118599012Y-101015980D01*
X118589242Y-100987892D01*
X118562986Y-100979344D01*
X118419494Y-100979344D01*
X118392932Y-100987892D01*
X118383773Y-101015980D01*
X118383773Y-101072766D01*
X118376751Y-101072766D01*
X118341600Y-101019577D01*
X118286102Y-100988467D01*
X118225561Y-100979435D01*
X118217993Y-100979344D01*
X118052519Y-100979344D01*
X117979077Y-100985910D01*
X117918084Y-101005610D01*
X117861322Y-101046587D01*
X117822486Y-101106475D01*
X117803814Y-101170829D01*
X117797839Y-101231768D01*
X117797590Y-101248316D01*
X117797590Y-101764890D01*
X117835143Y-101800000D01*
X117976803Y-101800000D01*
X118003670Y-101791451D01*
X118012829Y-101765195D01*
X118012829Y-101265413D01*
X118024679Y-101204047D01*
X118033895Y-101190919D01*
X118091614Y-101168878D01*
X118107168Y-101168326D01*
X118274169Y-101168326D01*
X118336571Y-101183081D01*
X118375103Y-101232834D01*
X118383773Y-101293196D01*
X118383773Y-101765195D01*
G37*
G36*
X115875399Y-100627634D02*
G01*
X115848838Y-100637404D01*
X115839068Y-100663965D01*
X115839068Y-100781812D01*
X115848838Y-100808374D01*
X115875399Y-100816617D01*
X116600800Y-100816617D01*
X116629499Y-100808374D01*
X116640184Y-100781812D01*
X116640184Y-100663965D01*
X116629499Y-100637404D01*
X116600800Y-100627634D01*
X115875399Y-100627634D01*
G37*
G36*
X116347093Y-101761226D02*
G01*
X116347093Y-101014453D01*
X116337323Y-100989113D01*
X116311372Y-100979344D01*
X116148646Y-100979344D01*
X116122695Y-100990029D01*
X116112620Y-101014453D01*
X116112620Y-101761226D01*
X116123611Y-101788703D01*
X116150478Y-101800000D01*
X116307709Y-101800000D01*
X116347093Y-101761226D01*
G37*
G36*
X115155799Y-101800000D02*
G01*
X115328600Y-101800000D01*
X115328600Y-101448290D01*
X115306313Y-101448290D01*
X115133206Y-101448290D01*
X115133206Y-101800000D01*
X115155799Y-101800000D01*
G37*
G36*
X112943874Y-100704265D02*
G01*
X112905945Y-100752318D01*
X112880430Y-100810611D01*
X112868170Y-100871023D01*
X112865411Y-100921641D01*
X112865411Y-101095664D01*
X112870258Y-101162163D01*
X112887297Y-101227349D01*
X112916604Y-101282344D01*
X112942958Y-101313346D01*
X112997627Y-101353596D01*
X113057433Y-101377075D01*
X113119028Y-101387808D01*
X113161556Y-101389672D01*
X113255894Y-101389672D01*
X113279098Y-101379596D01*
X113288257Y-101355783D01*
X113288257Y-101228471D01*
X113279098Y-101203742D01*
X113255894Y-101194277D01*
X113201550Y-101194277D01*
X113140313Y-101182444D01*
X113122782Y-101169242D01*
X113100980Y-101109710D01*
X113099884Y-101085894D01*
X113099884Y-100928968D01*
X113108829Y-100866071D01*
X113122782Y-100841957D01*
X113181758Y-100817508D01*
X113201550Y-100816617D01*
X113413431Y-100816617D01*
X113426254Y-100823028D01*
X113432055Y-100837988D01*
X113432055Y-101760921D01*
X113443656Y-101788398D01*
X113471133Y-101800000D01*
X113627449Y-101800000D01*
X113655232Y-101788703D01*
X113666528Y-101761226D01*
X113666528Y-100666407D01*
X113655232Y-100638930D01*
X113628365Y-100627634D01*
X113161556Y-100627634D01*
X113095057Y-100632423D01*
X113029871Y-100649261D01*
X112974876Y-100678222D01*
X112943874Y-100704265D01*
G37*
G36*
X112120471Y-101311514D02*
G01*
X112106427Y-101305713D01*
X112100931Y-101293501D01*
X112100931Y-101263886D01*
X112113811Y-101202349D01*
X112123829Y-101189698D01*
X112183999Y-101169078D01*
X112204124Y-101168326D01*
X112368682Y-101168326D01*
X112430890Y-101179149D01*
X112448672Y-101191224D01*
X112471059Y-101250402D01*
X112471875Y-101270298D01*
X112471875Y-101509045D01*
X112460369Y-101570011D01*
X112448977Y-101587508D01*
X112390667Y-101609892D01*
X112367461Y-101611017D01*
X111922023Y-101611017D01*
X111895157Y-101621397D01*
X111885692Y-101649485D01*
X111885692Y-101764890D01*
X111894546Y-101791146D01*
X111922023Y-101800000D01*
X112395549Y-101800000D01*
X112460712Y-101795382D01*
X112524852Y-101779148D01*
X112579283Y-101751225D01*
X112610177Y-101726116D01*
X112650749Y-101672610D01*
X112676295Y-101612844D01*
X112686813Y-101546816D01*
X112687114Y-101532859D01*
X112687114Y-101281594D01*
X112683491Y-101217194D01*
X112670477Y-101153362D01*
X112644524Y-101094004D01*
X112611399Y-101052311D01*
X112558024Y-101013832D01*
X112499638Y-100991386D01*
X112431446Y-100980484D01*
X112397991Y-100979344D01*
X112174815Y-100979344D01*
X112109842Y-100983885D01*
X112046008Y-100999851D01*
X111986582Y-101031073D01*
X111961407Y-101052006D01*
X111921479Y-101103860D01*
X111898188Y-101161541D01*
X111886875Y-101229654D01*
X111885692Y-101263276D01*
X111885692Y-101431193D01*
X111896988Y-101457449D01*
X111922329Y-101467829D01*
X112286556Y-101467829D01*
X112311591Y-101457754D01*
X112322276Y-101430887D01*
X112322276Y-101348761D01*
X112311591Y-101321894D01*
X112286556Y-101311514D01*
X112120471Y-101311514D01*
G37*
G36*
X110940167Y-101611017D02*
G01*
X110916659Y-101622008D01*
X110906584Y-101647348D01*
X110906584Y-101765500D01*
X110914827Y-101792672D01*
X110940167Y-101800000D01*
X111241807Y-101800000D01*
X111302734Y-101795687D01*
X111362564Y-101780526D01*
X111418223Y-101750878D01*
X111441781Y-101731001D01*
X111478972Y-101681973D01*
X111502388Y-101621139D01*
X111511686Y-101556294D01*
X111512306Y-101532554D01*
X111512306Y-101347234D01*
X111501620Y-101323421D01*
X111476585Y-101313040D01*
X111332787Y-101313040D01*
X111307752Y-101323421D01*
X111297067Y-101346929D01*
X111297067Y-101517288D01*
X111282786Y-101578935D01*
X111275085Y-101588729D01*
X111217551Y-101611256D01*
X111202728Y-101611017D01*
X110940167Y-101611017D01*
G37*
G36*
X110940167Y-100979344D02*
G01*
X110915132Y-100987892D01*
X110906584Y-101015980D01*
X110906584Y-101135354D01*
X110914827Y-101160999D01*
X110940167Y-101168326D01*
X111671369Y-101168326D01*
X111700373Y-101162526D01*
X111707700Y-101135354D01*
X111707700Y-101015980D01*
X111698541Y-100987892D01*
X111671369Y-100979344D01*
X111530319Y-100979344D01*
X111518107Y-100974153D01*
X111512306Y-100960109D01*
X111512306Y-100662744D01*
X111474754Y-100627634D01*
X111332787Y-100627634D01*
X111306226Y-100636488D01*
X111297067Y-100662744D01*
X111297067Y-100960109D01*
X111278138Y-100979344D01*
X110940167Y-100979344D01*
G37*
G36*
X110161643Y-101311514D02*
G01*
X110147599Y-101305713D01*
X110142103Y-101293501D01*
X110142103Y-101263886D01*
X110154983Y-101202349D01*
X110165001Y-101189698D01*
X110225171Y-101169078D01*
X110245296Y-101168326D01*
X110409855Y-101168326D01*
X110472063Y-101179149D01*
X110489844Y-101191224D01*
X110512232Y-101250402D01*
X110513047Y-101270298D01*
X110513047Y-101509045D01*
X110501541Y-101570011D01*
X110490150Y-101587508D01*
X110431839Y-101609892D01*
X110408633Y-101611017D01*
X109963196Y-101611017D01*
X109936329Y-101621397D01*
X109926864Y-101649485D01*
X109926864Y-101764890D01*
X109935718Y-101791146D01*
X109963196Y-101800000D01*
X110436721Y-101800000D01*
X110501885Y-101795382D01*
X110566024Y-101779148D01*
X110620456Y-101751225D01*
X110651350Y-101726116D01*
X110691922Y-101672610D01*
X110717467Y-101612844D01*
X110727986Y-101546816D01*
X110728286Y-101532859D01*
X110728286Y-101281594D01*
X110724663Y-101217194D01*
X110711650Y-101153362D01*
X110685696Y-101094004D01*
X110652571Y-101052311D01*
X110599197Y-101013832D01*
X110540810Y-100991386D01*
X110472618Y-100980484D01*
X110439164Y-100979344D01*
X110215987Y-100979344D01*
X110151015Y-100983885D01*
X110087181Y-100999851D01*
X110027754Y-101031073D01*
X110002580Y-101052006D01*
X109962652Y-101103860D01*
X109939360Y-101161541D01*
X109928048Y-101229654D01*
X109926864Y-101263276D01*
X109926864Y-101431193D01*
X109938161Y-101457449D01*
X109963501Y-101467829D01*
X110327728Y-101467829D01*
X110352763Y-101457754D01*
X110363449Y-101430887D01*
X110363449Y-101348761D01*
X110352763Y-101321894D01*
X110327728Y-101311514D01*
X110161643Y-101311514D01*
G37*
G36*
X108981645Y-100979344D02*
G01*
X108947756Y-101015980D01*
X108947756Y-101133522D01*
X108956304Y-101163136D01*
X108982866Y-101168326D01*
X109201158Y-101168326D01*
X109263304Y-101181862D01*
X109305080Y-101228020D01*
X109318545Y-101290150D01*
X109319005Y-101306934D01*
X109319005Y-101611017D01*
X109156889Y-101611017D01*
X109133686Y-101620481D01*
X109123611Y-101643989D01*
X109123611Y-101765195D01*
X109133991Y-101789619D01*
X109158415Y-101800000D01*
X109712236Y-101800000D01*
X109737882Y-101789619D01*
X109748872Y-101765195D01*
X109748872Y-101643989D01*
X109738187Y-101620481D01*
X109712236Y-101611017D01*
X109534244Y-101611017D01*
X109534244Y-101168326D01*
X109712236Y-101168326D01*
X109737882Y-101158862D01*
X109748872Y-101133522D01*
X109748872Y-101014148D01*
X109738492Y-100989724D01*
X109713763Y-100979344D01*
X109355947Y-100979344D01*
X109329691Y-100989724D01*
X109319005Y-101015980D01*
X109319005Y-101074598D01*
X109312288Y-101074598D01*
X109276439Y-101024199D01*
X109245427Y-101003463D01*
X109186677Y-100983324D01*
X109144371Y-100979344D01*
X108981645Y-100979344D01*
G37*
G36*
X107968342Y-101585676D02*
G01*
X107974998Y-101647420D01*
X108000558Y-101707698D01*
X108045287Y-101752907D01*
X108109186Y-101783046D01*
X108177079Y-101796651D01*
X108240978Y-101800000D01*
X108734043Y-101800000D01*
X108759994Y-101790840D01*
X108769459Y-101765195D01*
X108769459Y-101657117D01*
X108762437Y-101631472D01*
X108734043Y-101624145D01*
X108287384Y-101624145D01*
X108226683Y-101613411D01*
X108202815Y-101575296D01*
X108202815Y-101568274D01*
X108243624Y-101521733D01*
X108269677Y-101508435D01*
X108326874Y-101484788D01*
X108384769Y-101465017D01*
X108420802Y-101454396D01*
X108479527Y-101436610D01*
X108539839Y-101415578D01*
X108596046Y-101393640D01*
X108652318Y-101367925D01*
X108705780Y-101334883D01*
X108724884Y-101318230D01*
X108756879Y-101264215D01*
X108769285Y-101203491D01*
X108769459Y-101194888D01*
X108763168Y-101131186D01*
X108739011Y-101069934D01*
X108705040Y-101031550D01*
X108646378Y-100999737D01*
X108581686Y-100984442D01*
X108519586Y-100979547D01*
X108502623Y-100979344D01*
X108002231Y-100979344D01*
X107977501Y-100986671D01*
X107968342Y-101013843D01*
X107968342Y-101120699D01*
X107975059Y-101147871D01*
X108002231Y-101155198D01*
X108451943Y-101155198D01*
X108514225Y-101165197D01*
X108534986Y-101195193D01*
X108534986Y-101202215D01*
X108492872Y-101247034D01*
X108465987Y-101259918D01*
X108406604Y-101283123D01*
X108346333Y-101303022D01*
X108308756Y-101313956D01*
X108247915Y-101332450D01*
X108186714Y-101354768D01*
X108130764Y-101378375D01*
X108075627Y-101406305D01*
X108025070Y-101443103D01*
X108008032Y-101462028D01*
X107979544Y-101516871D01*
X107968497Y-101577215D01*
X107968342Y-101585676D01*
G37*
G36*
X107270724Y-100979344D02*
G01*
X107208213Y-100983961D01*
X107146464Y-101000195D01*
X107088504Y-101031942D01*
X107063728Y-101053227D01*
X107024122Y-101105576D01*
X107001018Y-101163243D01*
X106989797Y-101230909D01*
X106988623Y-101264192D01*
X106988623Y-101515151D01*
X106993336Y-101579131D01*
X107009906Y-101642031D01*
X107042308Y-101700647D01*
X107064033Y-101725505D01*
X107116608Y-101764789D01*
X107173562Y-101787705D01*
X107239645Y-101798836D01*
X107271945Y-101800000D01*
X107510081Y-101800000D01*
X107573699Y-101795439D01*
X107636419Y-101779406D01*
X107695119Y-101748053D01*
X107720130Y-101727032D01*
X107756824Y-101678088D01*
X107765621Y-101659560D01*
X107763789Y-101626587D01*
X107734174Y-101611017D01*
X107305223Y-101611017D01*
X107244130Y-101600627D01*
X107226760Y-101589035D01*
X107204667Y-101530043D01*
X107203862Y-101509961D01*
X107203862Y-101271214D01*
X107214540Y-101209150D01*
X107226454Y-101191530D01*
X107284934Y-101169142D01*
X107304612Y-101168326D01*
X107475582Y-101168326D01*
X107536111Y-101179294D01*
X107553129Y-101191530D01*
X107574044Y-101251110D01*
X107574806Y-101271214D01*
X107574806Y-101426919D01*
X107579996Y-101444626D01*
X107593124Y-101458060D01*
X107609305Y-101462334D01*
X107755240Y-101462334D01*
X107768368Y-101459891D01*
X107779665Y-101451953D01*
X107787602Y-101440352D01*
X107790045Y-101426919D01*
X107790045Y-101265108D01*
X107785427Y-101199506D01*
X107769193Y-101135648D01*
X107737446Y-101077044D01*
X107716161Y-101052616D01*
X107663950Y-101013976D01*
X107606966Y-100991436D01*
X107540516Y-100980488D01*
X107507944Y-100979344D01*
X107270724Y-100979344D01*
G37*
G36*
X106595392Y-101765195D02*
G01*
X106604551Y-101791451D01*
X106631113Y-101800000D01*
X106774605Y-101800000D01*
X106800861Y-101791451D01*
X106810631Y-101765195D01*
X106810631Y-101015980D01*
X106800861Y-100987892D01*
X106774605Y-100979344D01*
X106631113Y-100979344D01*
X106604551Y-100987892D01*
X106595392Y-101015980D01*
X106595392Y-101072766D01*
X106588370Y-101072766D01*
X106553219Y-101019577D01*
X106497721Y-100988467D01*
X106437180Y-100979435D01*
X106429612Y-100979344D01*
X106264138Y-100979344D01*
X106190696Y-100985910D01*
X106129703Y-101005610D01*
X106072941Y-101046587D01*
X106034105Y-101106475D01*
X106015433Y-101170829D01*
X106009458Y-101231768D01*
X106009209Y-101248316D01*
X106009209Y-101764890D01*
X106046762Y-101800000D01*
X106188422Y-101800000D01*
X106215289Y-101791451D01*
X106224448Y-101765195D01*
X106224448Y-101265413D01*
X106236298Y-101204047D01*
X106245514Y-101190919D01*
X106303233Y-101168878D01*
X106318787Y-101168326D01*
X106485788Y-101168326D01*
X106548190Y-101183081D01*
X106586722Y-101232834D01*
X106595392Y-101293196D01*
X106595392Y-101765195D01*
G37*
M02*
