M48
INCH,TZ
T1C0.0118
T2C0.0307
T3C0.0315
T4C0.0343
T5C0.0402
%
G90
G05
T1
X31496Y-30692
X31890Y-29708
X32126Y-28723
X32382Y-27756
X32677Y-26673
X32972Y-25689
X33209Y-24705
X33691Y-25069
X33701Y-24321
X33957Y-24606
X33957Y-25689
X34252Y-24902
X34252Y-25984
X34547Y-23720
X34843Y-22736
X34862Y-23720
X38583Y-19913
X41346Y-19909
X42323Y-22539
X42327Y-20825
X43209Y-23425
X49311Y-37500
X49705Y-20472
X52953Y-34449
X54134Y-20472
X55315Y-22343
X55512Y-34252
X56594Y-28051
X58661Y-29626
T2
X50610Y-20007
X50610Y-23133
X50831Y-36716
X50831Y-39842
X51610Y-20007
X51610Y-23133
X51831Y-36716
X51831Y-39842
X52610Y-20007
X52610Y-23133
X52831Y-36716
X52831Y-39842
X53610Y-20007
X53610Y-23133
X53831Y-36716
X53831Y-39842
X54610Y-20007
X54610Y-23133
X54831Y-36716
X54831Y-39842
X55610Y-20007
X55610Y-23133
X55831Y-36716
X55831Y-39842
X56610Y-20007
X56610Y-23133
X56831Y-36716
X56831Y-39842
X57610Y-20007
X57610Y-23133
X57831Y-36716
X57831Y-39842
T3
X31760Y-39075
X35760Y-39075
X50173Y-26961
X50173Y-32961
X51173Y-26961
X51173Y-32961
X52173Y-26961
X52173Y-32961
X53173Y-26961
X53173Y-32961
X54173Y-26961
X54173Y-32961
X55173Y-26961
X55173Y-32961
X56173Y-26961
X56173Y-32961
X57173Y-26961
X57173Y-32961
X58173Y-26961
X58173Y-32961
T4
X30686Y-22732
X30686Y-23732
X30686Y-24732
X30686Y-25732
X30686Y-26732
X30686Y-27732
X30686Y-28732
X30686Y-29732
X30686Y-30732
X30686Y-31732
X30686Y-32732
X30686Y-33732
X30686Y-34732
X30686Y-35732
X36811Y-22732
X36811Y-23732
X36811Y-24732
X36811Y-25732
X36811Y-26732
X36811Y-27732
X36811Y-28732
X36811Y-29732
X36811Y-30732
X36811Y-31732
X36811Y-32732
X36811Y-33732
X36811Y-34732
X36811Y-35732
T5
X40220Y-20366
X40220Y-21366
X40220Y-22366
X40220Y-23366
X40220Y-24366
X40220Y-25366
X40220Y-26366
X40220Y-27366
X40220Y-28366
X40220Y-29366
X40220Y-30366
X40220Y-31366
X40220Y-32366
X40220Y-33366
X40220Y-34366
X40220Y-35366
X40220Y-36366
X40220Y-37366
X40220Y-38366
X40220Y-39366
X47220Y-20366
X47220Y-21366
X47220Y-22366
X47220Y-23366
X47220Y-24366
X47220Y-25366
X47220Y-26366
X47220Y-27366
X47220Y-28366
X47220Y-29366
X47220Y-30366
X47220Y-31366
X47220Y-32366
X47220Y-33366
X47220Y-34366
X47220Y-35366
X47220Y-36366
X47220Y-37366
X47220Y-38366
X47220Y-39366
M30
